<svg width="25" height="25" viewBox="0 0 25 25" fill="none" xmlns="http://www.w3.org/2000/svg">
<path d="M4.61914 4.61914H7.61914L9.61914 2.61914H15.6191L17.6191 4.61914H20.6191C21.1496 4.61914 21.6583 4.82985 22.0334 5.20493C22.4084 5.58 22.6191 6.08871 22.6191 6.61914V18.6191C22.6191 19.1496 22.4084 19.6583 22.0334 20.0334C21.6583 20.4084 21.1496 20.6191 20.6191 20.6191H4.61914C4.08871 20.6191 3.58 20.4084 3.20493 20.0334C2.82985 19.6583 2.61914 19.1496 2.61914 18.6191V6.61914C2.61914 6.08871 2.82985 5.58 3.20493 5.20493C3.58 4.82985 4.08871 4.61914 4.61914 4.61914ZM12.6191 7.61914C11.2931 7.61914 10.0213 8.14592 9.08361 9.08361C8.14592 10.0213 7.61914 11.2931 7.61914 12.6191C7.61914 13.9452 8.14592 15.217 9.08361 16.1547C10.0213 17.0924 11.2931 17.6191 12.6191 17.6191C13.9452 17.6191 15.217 17.0924 16.1547 16.1547C17.0924 15.217 17.6191 13.9452 17.6191 12.6191C17.6191 11.2931 17.0924 10.0213 16.1547 9.08361C15.217 8.14592 13.9452 7.61914 12.6191 7.61914ZM12.6191 9.61914C13.4148 9.61914 14.1779 9.93521 14.7405 10.4978C15.3031 11.0604 15.6191 11.8235 15.6191 12.6191C15.6191 13.4148 15.3031 14.1779 14.7405 14.7405C14.1779 15.3031 13.4148 15.6191 12.6191 15.6191C11.8235 15.6191 11.0604 15.3031 10.4978 14.7405C9.93521 14.1779 9.61914 13.4148 9.61914 12.6191C9.61914 11.8235 9.93521 11.0604 10.4978 10.4978C11.0604 9.93521 11.8235 9.61914 12.6191 9.61914Z" fill="black"/>
</svg>
