<svg width="447" height="413" viewBox="0 0 447 413" fill="none" xmlns="http://www.w3.org/2000/svg">
<path d="M61.2109 95.8301V119.47" stroke="#B9D0F9" stroke-width="2.63" stroke-linecap="round" stroke-linejoin="round"/>
<path d="M73.0306 107.65H49.3906" stroke="#B9D0F9" stroke-width="2.63" stroke-linecap="round" stroke-linejoin="round"/>
<path d="M346.602 121.27V144.91" stroke="#B9D0F9" stroke-width="2.63" stroke-linecap="round" stroke-linejoin="round"/>
<path d="M358.421 133.09H334.781" stroke="#B9D0F9" stroke-width="2.63" stroke-linecap="round" stroke-linejoin="round"/>
<path d="M138.758 25.8008V40.5108" stroke="#B9D0F9" stroke-width="1.63" stroke-linecap="round" stroke-linejoin="round"/>
<path d="M146.124 33.1602H131.414" stroke="#B9D0F9" stroke-width="1.63" stroke-linecap="round" stroke-linejoin="round"/>
<path d="M328.82 27.6406V42.3506" stroke="#B9D0F9" stroke-width="1.63" stroke-linecap="round" stroke-linejoin="round"/>
<path d="M336.181 34.9902H321.461" stroke="#B9D0F9" stroke-width="1.63" stroke-linecap="round" stroke-linejoin="round"/>
<path d="M433.664 237.76V261.39" stroke="#B9D0F9" stroke-width="2.63" stroke-linecap="round" stroke-linejoin="round"/>
<path d="M445.484 249.58H421.844" stroke="#B9D0F9" stroke-width="2.63" stroke-linecap="round" stroke-linejoin="round"/>
<path opacity="0.27" d="M4.15086 396.93C-0.549144 370.61 -3.33914 342.44 7.53086 318C21.6709 286.24 58.8409 267.34 93.2509 272.27C109.571 274.61 125.251 281.62 141.721 281.52C151.747 281.442 161.576 278.728 170.221 273.65C196.501 258.18 205.931 225.21 225.441 201.76C238.499 186.152 255.997 174.886 275.611 169.46C317.101 158.1 358.081 177.62 380.671 213.14C391.918 230.831 398.268 251.192 399.071 272.14C399.311 278.76 392.651 334.14 390.021 332.95C404.581 339.49 413.721 357.5 414.251 373.44C426.781 373.49 438.881 382.75 441.691 394.96L4.15086 396.93Z" fill="#8FF2D1"/>
<path d="M255.837 23.6792C254.307 23.0492 252.728 22.4692 251.158 21.9492L250.688 23.3492C252.227 23.8592 253.777 24.4292 255.287 25.0392L255.837 23.6792Z" fill="#B9D0F9"/>
<path d="M273.14 33.6092C271.82 32.6092 270.45 31.6092 269.07 30.6992L268.25 31.9192C269.61 32.8292 270.95 33.7892 272.25 34.7792L273.14 33.6092Z" fill="#B9D0F9"/>
<path d="M264.818 28.0588C263.378 27.2288 261.898 26.4488 260.408 25.7188L259.758 27.0487C261.218 27.7587 262.668 28.5288 264.088 29.3388L264.818 28.0588Z" fill="#B9D0F9"/>
<path d="M246.363 20.5292C244.753 20.1192 243.113 19.7492 241.483 19.4492L241.203 20.8992C242.803 21.1992 244.413 21.5592 245.993 21.9592L246.363 20.5292Z" fill="#B9D0F9"/>
<path d="M297.08 65.1191C296.46 63.5791 295.78 62.0391 295.08 60.5391L293.75 61.1791C294.46 62.6491 295.13 64.1791 295.75 65.6691L297.08 65.1191Z" fill="#B9D0F9"/>
<path d="M299.873 73.4903C299.533 72.2603 299.183 71.0303 298.793 69.8203L297.383 70.2803C297.733 71.3403 298.043 72.4103 298.383 73.4903H299.873Z" fill="#B9D0F9"/>
<path d="M236.533 18.6895C234.883 18.4895 233.203 18.3495 231.533 18.2695L231.453 19.7395C233.083 19.8195 234.723 19.9595 236.343 20.1595L236.533 18.6895Z" fill="#B9D0F9"/>
<path d="M287.217 47.7511C286.217 46.4311 285.147 45.1311 284.057 43.8711L282.938 44.8711C284.018 46.1011 285.058 47.3811 286.038 48.6811L287.217 47.7511Z" fill="#B9D0F9"/>
<path d="M292.733 56.1001C291.913 54.6601 291.033 53.2201 290.113 51.8301L288.883 52.6501C289.783 54.0101 290.643 55.4201 291.443 56.8301L292.733 56.1001Z" fill="#B9D0F9"/>
<path d="M280.65 40.2113C279.48 39.0313 278.25 37.8813 277 36.7812L276 37.8913C277.22 38.9713 278.42 40.1013 279.57 41.2513L280.65 40.2113Z" fill="#B9D0F9"/>
<path d="M207.219 22.5001L206.809 21.0801C205.209 21.5501 203.599 22.0801 202.039 22.6301L202.549 24.0201C204.079 23.4701 205.649 23.0001 207.219 22.5001Z" fill="#B9D0F9"/>
<path d="M174.13 42.7598L173.05 41.7598C171.91 42.9798 170.8 44.2398 169.75 45.5198L170.89 46.4598C171.92 45.1798 173 43.9398 174.13 42.7598Z" fill="#B9D0F9"/>
<path d="M162.742 58.65L161.432 58C160.652 59.47 159.912 61 159.242 62.49L160.582 63.09C161.252 61.57 162.002 60.09 162.742 58.65Z" fill="#B9D0F9"/>
<path d="M167.902 50.3288L166.702 49.4688C165.702 50.8188 164.802 52.2188 163.922 53.6287L165.182 54.3988C166.002 52.9988 167.002 51.6488 167.902 50.3288Z" fill="#B9D0F9"/>
<path d="M226.57 19.6399V18.1699C224.9 18.1699 223.22 18.2699 221.57 18.3999L221.69 19.8699C223.29 19.7399 224.93 19.6699 226.57 19.6399Z" fill="#B9D0F9"/>
<path d="M158.733 67.5901L157.353 67.0801C156.773 68.6401 156.243 70.2301 155.773 71.8301L157.193 72.2401C157.653 70.6801 158.173 69.1201 158.733 67.5901Z" fill="#B9D0F9"/>
<path d="M197.998 25.85L197.408 24.5C195.888 25.17 194.408 25.9 192.898 26.68L193.578 27.98C194.998 27.22 196.498 26.51 197.998 25.85Z" fill="#B9D0F9"/>
<path d="M216.804 20.43L216.584 19C214.934 19.24 213.284 19.54 211.664 19.89L212.004 21.3C213.564 21 215.184 20.66 216.804 20.43Z" fill="#B9D0F9"/>
<path d="M189.299 30.4004L188.529 29.1504C187.119 30.0104 185.709 30.9404 184.359 31.9004L185.209 33.1104C186.539 32.1604 187.919 31.2504 189.299 30.4004Z" fill="#B9D0F9"/>
<path d="M181.302 36.0697L180.372 34.9297C179.082 35.9297 177.812 37.0897 176.602 38.2197L177.602 39.2997C178.792 38.1897 180.002 37.0997 181.302 36.0697Z" fill="#B9D0F9"/>
<path d="M176.443 151.129H27.8125C21.5993 151.129 16.5625 156.166 16.5625 162.379V383.719C16.5625 389.932 21.5993 394.969 27.8125 394.969H176.443C182.656 394.969 187.693 389.932 187.693 383.719V162.379C187.693 156.166 182.656 151.129 176.443 151.129Z" fill="#624BEF"/>
<path d="M164.309 171.191H29.6094V359.881H164.309V171.191Z" fill="white"/>
<path d="M154.945 170.82C152.655 183.368 149.21 195.677 144.655 207.59C132.045 240.59 112.015 271.46 88.5447 298.87C77.6471 311.702 65.1908 323.123 51.4647 332.87C44.6949 337.725 37.4353 341.858 29.8047 345.2V375.27H175.475V170.82H154.945Z" fill="#E4E4FD"/>
<path d="M102.403 169.799C116.697 169.799 128.283 159.148 128.283 146.009C128.283 132.87 116.697 122.219 102.403 122.219C88.1103 122.219 76.5234 132.87 76.5234 146.009C76.5234 159.148 88.1103 169.799 102.403 169.799Z" fill="#34304F"/>
<path d="M154.152 177.21C155.297 174.723 155.891 172.018 155.893 169.28C155.893 157.94 145.803 148.66 133.463 148.66H69.0025C56.6625 148.66 46.5625 157.94 46.5625 169.28C46.5644 172.018 47.1579 174.723 48.3025 177.21H154.152Z" fill="#34304F"/>
<path d="M149.5 216H55.5C54.4391 216 53.4217 215.579 52.6716 214.828C51.9214 214.078 51.5 213.061 51.5 212C51.5 210.939 51.9214 209.922 52.6716 209.172C53.4217 208.421 54.4391 208 55.5 208H149.5C150.561 208 151.578 208.421 152.328 209.172C153.079 209.922 153.5 210.939 153.5 212C153.5 213.061 153.079 214.078 152.328 214.828C151.578 215.579 150.561 216 149.5 216Z" fill="#A7A7FC"/>
<path d="M149.5 238.82H55.5C54.4391 238.82 53.4217 238.399 52.6716 237.649C51.9214 236.899 51.5 235.881 51.5 234.82C51.5 233.759 51.9214 232.742 52.6716 231.992C53.4217 231.242 54.4391 230.82 55.5 230.82H149.5C150.561 230.82 151.578 231.242 152.328 231.992C153.079 232.742 153.5 233.759 153.5 234.82C153.5 235.881 153.079 236.899 152.328 237.649C151.578 238.399 150.561 238.82 149.5 238.82Z" fill="#A7A7FC"/>
<path d="M149.5 266.26H55.5C54.4391 266.26 53.4217 265.838 52.6716 265.088C51.9214 264.338 51.5 263.321 51.5 262.26C51.5 261.199 51.9214 260.181 52.6716 259.431C53.4217 258.681 54.4391 258.26 55.5 258.26H149.5C150.561 258.26 151.578 258.681 152.328 259.431C153.079 260.181 153.5 261.199 153.5 262.26C153.5 263.321 153.079 264.338 152.328 265.088C151.578 265.838 150.561 266.26 149.5 266.26Z" fill="#A7A7FC"/>
<path d="M149.503 285.691H55.5234C53.3143 285.691 51.5234 287.482 51.5234 289.691C51.5234 291.901 53.3143 293.691 55.5234 293.691H149.503C151.713 293.691 153.503 291.901 153.503 289.691C153.503 287.482 151.713 285.691 149.503 285.691Z" fill="#A7A7FC"/>
<path d="M149.5 321.129H55.5C54.4391 321.129 53.4217 320.707 52.6716 319.957C51.9214 319.207 51.5 318.19 51.5 317.129C51.5 316.068 51.9214 315.051 52.6716 314.3C53.4217 313.55 54.4391 313.129 55.5 313.129H149.5C150.561 313.129 151.578 313.55 152.328 314.3C153.079 315.051 153.5 316.068 153.5 317.129C153.5 318.19 153.079 319.207 152.328 319.957C151.578 320.707 150.561 321.129 149.5 321.129Z" fill="#A7A7FC"/>
<path d="M149.5 348.559H55.5C54.4391 348.559 53.4217 348.137 52.6716 347.387C51.9214 346.637 51.5 345.619 51.5 344.559C51.5 343.498 51.9214 342.48 52.6716 341.73C53.4217 340.98 54.4391 340.559 55.5 340.559H149.5C150.561 340.559 151.578 340.98 152.328 341.73C153.079 342.48 153.5 343.498 153.5 344.559C153.5 345.619 153.079 346.637 152.328 347.387C151.578 348.137 150.561 348.559 149.5 348.559Z" fill="#A7A7FC"/>
<path d="M102.733 150.721C107.168 150.721 110.763 147.417 110.763 143.341C110.763 139.265 107.168 135.961 102.733 135.961C98.2983 135.961 94.7031 139.265 94.7031 143.341C94.7031 147.417 98.2983 150.721 102.733 150.721Z" fill="white"/>
<path d="M55.8538 171.379C55.7921 168.109 57.0308 164.949 59.2977 162.592C61.5646 160.235 64.6743 158.874 67.9438 158.809H134.894C138.035 158.872 141.023 160.18 143.2 162.445C145.377 164.71 146.565 167.747 146.504 170.889V173.099" stroke="#624BEF" stroke-width="1.68" stroke-linecap="round" stroke-linejoin="round"/>
<path d="M12.1328 395.34H437.003" stroke="#34304F" stroke-width="5.52" stroke-linecap="round" stroke-linejoin="round"/>
<path d="M96.0037 98.6098C96.5176 99.1247 96.8673 99.7805 97.0086 100.494C97.15 101.208 97.0766 101.947 96.7979 102.619C96.5191 103.291 96.0474 103.865 95.4424 104.269C94.8374 104.673 94.1262 104.889 93.3987 104.889C92.6713 104.889 91.9601 104.673 91.3551 104.269C90.7501 103.865 90.2784 103.291 89.9996 102.619C89.7209 101.947 89.6475 101.208 89.7889 100.494C89.9302 99.7805 90.2799 99.1247 90.7937 98.6098C91.4854 97.9203 92.4222 97.5332 93.3987 97.5332C94.3753 97.5332 95.3121 97.9203 96.0037 98.6098Z" fill="#B9D0F9"/>
<path d="M104.849 79.9514C105.749 79.9514 106.479 79.2216 106.479 78.3214C106.479 77.4212 105.749 76.6914 104.849 76.6914C103.949 76.6914 103.219 77.4212 103.219 78.3214C103.219 79.2216 103.949 79.9514 104.849 79.9514Z" fill="#B9D0F9"/>
<path d="M84.4128 85.2689C84.4128 85.5937 84.3164 85.9112 84.1357 86.1811C83.9551 86.451 83.6983 86.6612 83.3981 86.785C83.0978 86.9089 82.7676 86.9408 82.4492 86.8767C82.1308 86.8126 81.8386 86.6554 81.6096 86.425C81.3807 86.1947 81.2253 85.9015 81.1631 85.5827C81.101 85.2639 81.1349 84.9339 81.2605 84.6344C81.3862 84.3349 81.598 84.0794 81.869 83.9005C82.14 83.7215 82.458 83.627 82.7828 83.6289C82.9977 83.6289 83.2105 83.6714 83.4089 83.754C83.6073 83.8365 83.7875 83.9575 83.9389 84.1099C84.0904 84.2623 84.2103 84.4432 84.2916 84.6421C84.3729 84.841 84.4141 85.054 84.4128 85.2689Z" fill="#B9D0F9"/>
<path d="M37.4147 116.129C37.4147 117.302 37.0669 118.449 36.4153 119.424C35.7637 120.399 34.8376 121.159 33.754 121.608C32.6704 122.057 31.4781 122.174 30.3278 121.945C29.1775 121.716 28.1209 121.152 27.2915 120.322C26.4622 119.493 25.8974 118.436 25.6686 117.286C25.4398 116.136 25.5573 114.943 26.0061 113.86C26.4549 112.776 27.215 111.85 28.1902 111.199C29.1653 110.547 30.3118 110.199 31.4847 110.199C32.2638 110.198 33.0355 110.35 33.7556 110.648C34.4756 110.945 35.1299 111.382 35.6808 111.933C36.2317 112.484 36.6684 113.138 36.966 113.858C37.2635 114.578 37.416 115.35 37.4147 116.129Z" fill="#B9D0F9"/>
<path d="M34.5472 144.74C34.5472 145.104 34.4393 145.46 34.2371 145.763C34.0349 146.065 33.7475 146.301 33.4113 146.44C33.0751 146.58 32.7051 146.616 32.3482 146.545C31.9913 146.474 31.6634 146.299 31.4061 146.041C31.1488 145.784 30.9735 145.456 30.9025 145.099C30.8315 144.742 30.868 144.372 31.0072 144.036C31.1465 143.7 31.3824 143.413 31.6849 143.21C31.9875 143.008 32.3433 142.9 32.7072 142.9C33.1944 142.903 33.6609 143.098 34.0054 143.442C34.3499 143.787 34.5446 144.253 34.5472 144.74Z" fill="#B9D0F9"/>
<path d="M115.271 123.069C116.171 123.069 116.901 122.339 116.901 121.439C116.901 120.538 116.171 119.809 115.271 119.809C114.37 119.809 113.641 120.538 113.641 121.439C113.641 122.339 114.37 123.069 115.271 123.069Z" fill="#B9D0F9"/>
<path d="M209.478 188.059C209.478 188.989 209.202 189.898 208.686 190.671C208.17 191.443 207.436 192.046 206.577 192.402C205.718 192.757 204.773 192.85 203.861 192.669C202.95 192.488 202.112 192.04 201.455 191.383C200.797 190.725 200.35 189.888 200.168 188.976C199.987 188.065 200.08 187.12 200.436 186.261C200.792 185.402 201.394 184.668 202.167 184.151C202.94 183.635 203.849 183.359 204.778 183.359C205.396 183.358 206.007 183.479 206.578 183.714C207.149 183.95 207.668 184.296 208.104 184.733C208.541 185.17 208.887 185.688 209.123 186.259C209.359 186.83 209.479 187.442 209.478 188.059Z" fill="#B9D0F9"/>
<path d="M205.254 162.68C206.27 162.68 207.094 161.856 207.094 160.84C207.094 159.824 206.27 159 205.254 159C204.238 159 203.414 159.824 203.414 160.84C203.414 161.856 204.238 162.68 205.254 162.68Z" fill="#B9D0F9"/>
<path d="M196.813 204.821C196.813 205.103 196.729 205.38 196.572 205.615C196.415 205.85 196.192 206.034 195.93 206.142C195.669 206.25 195.382 206.278 195.104 206.223C194.827 206.168 194.572 206.032 194.372 205.832C194.172 205.632 194.036 205.377 193.981 205.1C193.925 204.822 193.954 204.535 194.062 204.273C194.17 204.012 194.354 203.789 194.589 203.632C194.824 203.474 195.1 203.391 195.383 203.391C195.571 203.391 195.757 203.428 195.93 203.499C196.104 203.571 196.261 203.677 196.394 203.809C196.527 203.942 196.632 204.1 196.704 204.273C196.776 204.447 196.813 204.633 196.813 204.821Z" fill="#B9D0F9"/>
<path d="M237.283 177.231C237.283 178.525 236.9 179.789 236.181 180.865C235.462 181.94 234.441 182.779 233.246 183.274C232.051 183.769 230.736 183.898 229.467 183.646C228.199 183.393 227.033 182.771 226.119 181.856C225.204 180.941 224.581 179.776 224.329 178.507C224.076 177.239 224.206 175.924 224.701 174.729C225.196 173.534 226.034 172.512 227.11 171.794C228.185 171.075 229.45 170.691 230.743 170.691C232.478 170.691 234.141 171.38 235.368 172.607C236.594 173.833 237.283 175.497 237.283 177.231Z" fill="#B9D0F9"/>
<path d="M416.304 168.439C416.306 169.127 416.103 169.801 415.722 170.375C415.341 170.948 414.798 171.396 414.162 171.661C413.527 171.926 412.827 171.996 412.151 171.863C411.475 171.73 410.854 171.399 410.367 170.913C409.879 170.427 409.546 169.807 409.411 169.131C409.276 168.456 409.345 167.756 409.608 167.119C409.871 166.483 410.317 165.939 410.889 165.556C411.462 165.173 412.135 164.969 412.824 164.969C413.745 164.969 414.629 165.334 415.281 165.984C415.933 166.635 416.301 167.518 416.304 168.439Z" fill="#B9D0F9"/>
<path d="M381.604 76.9995C381.602 77.6854 381.397 78.3553 381.014 78.9246C380.632 79.494 380.089 79.9372 379.455 80.1983C378.821 80.4594 378.123 80.5266 377.451 80.3916C376.779 80.2566 376.161 79.9253 375.677 79.4397C375.193 78.954 374.863 78.3357 374.73 77.6628C374.597 76.99 374.666 76.2928 374.929 75.6593C375.192 75.0258 375.637 74.4845 376.207 74.1036C376.778 73.7228 377.448 73.5195 378.134 73.5195C378.591 73.5195 379.043 73.6096 379.464 73.7846C379.886 73.9596 380.269 74.2161 380.591 74.5394C380.914 74.8627 381.169 75.2464 381.343 75.6685C381.517 76.0907 381.605 76.543 381.604 76.9995Z" fill="#B9D0F9"/>
<path d="M403.999 194.81C403.999 195.862 403.687 196.891 403.103 197.766C402.518 198.641 401.687 199.323 400.715 199.725C399.743 200.128 398.673 200.233 397.642 200.028C396.61 199.823 395.662 199.316 394.918 198.572C394.174 197.828 393.667 196.88 393.462 195.848C393.256 194.816 393.362 193.746 393.764 192.774C394.167 191.802 394.849 190.971 395.724 190.387C396.599 189.802 397.627 189.49 398.679 189.49C400.09 189.49 401.443 190.051 402.441 191.048C403.439 192.046 403.999 193.399 403.999 194.81Z" fill="#B9D0F9"/>
<path d="M390.999 143.919C391.001 144.608 390.799 145.282 390.417 145.855C390.036 146.429 389.493 146.877 388.858 147.141C388.222 147.406 387.522 147.477 386.846 147.344C386.171 147.21 385.55 146.88 385.062 146.394C384.574 145.907 384.242 145.287 384.107 144.612C383.972 143.937 384.04 143.236 384.303 142.6C384.566 141.963 385.012 141.419 385.585 141.036C386.157 140.654 386.83 140.449 387.519 140.449C387.976 140.448 388.428 140.537 388.85 140.71C389.272 140.884 389.656 141.14 389.979 141.462C390.302 141.784 390.559 142.167 390.734 142.589C390.909 143.011 390.999 143.463 390.999 143.919Z" fill="#B9D0F9"/>
<path d="M403.674 40.3804C403.672 41.0663 403.467 41.7362 403.085 42.3055C402.702 42.8748 402.16 43.318 401.525 43.5791C400.891 43.8402 400.194 43.9075 399.521 43.7725C398.849 43.6375 398.231 43.3062 397.747 42.8205C397.263 42.3348 396.933 41.7165 396.8 41.0437C396.667 40.3708 396.737 39.6737 396.999 39.0402C397.262 38.4067 397.707 37.8653 398.278 37.4845C398.848 37.1037 399.518 36.9004 400.204 36.9004C400.661 36.9004 401.113 36.9905 401.535 37.1655C401.956 37.3405 402.339 37.597 402.662 37.9203C402.984 38.2435 403.239 38.6273 403.413 39.0494C403.587 39.4716 403.676 39.9239 403.674 40.3804Z" fill="#B9D0F9"/>
<path d="M264.07 223.34L297.11 267.8" stroke="#E4E4FD" stroke-width="2.65" stroke-linecap="round" stroke-linejoin="round"/>
<path d="M373.033 231.801H248.523V345.941H373.033V231.801Z" fill="#F9A41C"/>
<path opacity="0.6" d="M373.024 231.801H320.094V345.941H373.024V231.801Z" fill="#E56700"/>
<path d="M294.497 240.99H258.938V260H294.497V240.99Z" fill="#34304F"/>
<path d="M295.115 264.289H259.555V273.279H295.115V264.289Z" fill="#34304F"/>
<path d="M230.305 267.801V345.981H341.085L387.995 269.581L230.305 267.801Z" stroke="#E4E4FD" stroke-width="2.65" stroke-linecap="round" stroke-linejoin="round"/>
<path d="M197.258 223.34L230.298 267.8" stroke="#E4E4FD" stroke-width="2.65" stroke-linecap="round" stroke-linejoin="round"/>
<path d="M247.742 269.289V343.959" stroke="#E4E4FD" stroke-width="2.64" stroke-linecap="round" stroke-linejoin="round"/>
<path d="M272.742 269.35V344.41" stroke="#E4E4FD" stroke-width="2.65" stroke-linecap="round" stroke-linejoin="round"/>
<path d="M296.852 269.801V344.851" stroke="#E4E4FD" stroke-width="2.65" stroke-linecap="round" stroke-linejoin="round"/>
<path d="M320.078 270.25V345.3" stroke="#E4E4FD" stroke-width="2.65" stroke-linecap="round" stroke-linejoin="round"/>
<path d="M344.188 345.751V270.691" stroke="#E4E4FD" stroke-width="2.65" stroke-linecap="round" stroke-linejoin="round"/>
<path d="M231.211 295.711H404.001" stroke="#E4E4FD" stroke-width="2.65" stroke-linecap="round" stroke-linejoin="round"/>
<path d="M231.211 325.639L385.191 325.199" stroke="#E4E4FD" stroke-width="2.65" stroke-linecap="round" stroke-linejoin="round"/>
<path d="M366.109 346.361L366.549 271.121" stroke="#E4E4FD" stroke-width="2.65" stroke-linecap="round" stroke-linejoin="round"/>
<path d="M277.997 224.84H183.367C182.26 224.838 181.198 224.397 180.415 223.613C179.631 222.83 179.19 221.768 179.188 220.66C179.19 219.553 179.631 218.491 180.415 217.708C181.198 216.924 182.26 216.483 183.367 216.48H277.997C279.104 216.486 280.163 216.928 280.944 217.711C281.725 218.494 282.165 219.554 282.168 220.66C282.165 221.767 281.725 222.827 280.944 223.61C280.163 224.393 279.104 224.835 277.997 224.84Z" fill="#A095F8"/>
<path d="M278 216.48H245C245.517 219.313 246.228 222.106 247.13 224.84H278C279.109 224.84 280.172 224.4 280.956 223.616C281.74 222.832 282.18 221.769 282.18 220.66C282.18 219.552 281.74 218.489 280.956 217.705C280.172 216.921 279.109 216.48 278 216.48Z" fill="#34304F"/>
<path d="M382.038 269.289L422.628 269.879L373.028 345.939L320.078 345.299" stroke="#E4E4FD" stroke-width="2.63" stroke-linecap="round" stroke-linejoin="round"/>
<path d="M359.461 345.241L403.811 271.641" stroke="#E4E4FD" stroke-width="2.64" stroke-linecap="round" stroke-linejoin="round"/>
<path d="M277.811 389C276.482 391.051 274.574 392.662 272.33 393.629C270.085 394.596 267.604 394.876 265.2 394.434C262.797 393.991 260.578 392.846 258.825 391.143C257.072 389.44 255.863 387.255 255.352 384.865C254.84 382.475 255.049 379.987 255.951 377.715C256.853 375.444 258.409 373.491 260.421 372.103C262.433 370.716 264.811 369.956 267.255 369.919C269.699 369.883 272.098 370.572 274.151 371.9C275.514 372.782 276.691 373.924 277.613 375.261C278.535 376.597 279.184 378.103 279.524 379.691C279.864 381.279 279.888 382.919 279.594 384.516C279.3 386.113 278.694 387.637 277.811 389Z" fill="#624BEF"/>
<path d="M272.89 385.781C272.191 386.855 271.189 387.698 270.011 388.204C268.833 388.71 267.531 388.855 266.271 388.622C265.01 388.389 263.847 387.787 262.927 386.894C262.008 386 261.374 384.854 261.105 383.601C260.836 382.347 260.945 381.042 261.417 379.85C261.889 378.658 262.703 377.633 263.758 376.903C264.812 376.174 266.058 375.773 267.34 375.751C268.622 375.729 269.882 376.087 270.96 376.781C271.68 377.243 272.301 377.843 272.788 378.547C273.274 379.25 273.617 380.043 273.797 380.879C273.976 381.716 273.988 382.579 273.833 383.42C273.677 384.262 273.357 385.064 272.89 385.781Z" fill="#34304F"/>
<path d="M265.579 381.56C264.457 381.139 263.548 380.293 263.048 379.205C262.547 378.116 262.498 376.875 262.909 375.75L269.439 358.12C269.859 356.998 270.706 356.089 271.794 355.589C272.882 355.088 274.124 355.039 275.249 355.45C276.372 355.868 277.283 356.714 277.784 357.803C278.284 358.892 278.333 360.135 277.919 361.26L271.399 378.89C270.976 380.012 270.128 380.922 269.038 381.422C267.948 381.922 266.705 381.971 265.579 381.56Z" fill="#A2A2ED"/>
<path d="M369.903 340.37H352.383L391.703 277.5L408.763 277.96L369.903 340.37Z" fill="#7973EF"/>
<path d="M361.282 395.009C368.108 395.009 373.642 389.475 373.642 382.649C373.642 375.823 368.108 370.289 361.282 370.289C354.456 370.289 348.922 375.823 348.922 382.649C348.922 389.475 354.456 395.009 361.282 395.009Z" fill="#624BEF"/>
<path d="M361.28 388.681C364.61 388.681 367.31 385.981 367.31 382.651C367.31 379.321 364.61 376.621 361.28 376.621C357.95 376.621 355.25 379.321 355.25 382.651C355.25 385.981 357.95 388.681 361.28 388.681Z" fill="#34304F"/>
<path d="M360.188 355.281H359.778C357.735 355.281 356.078 356.938 356.078 358.981V377.911C356.078 379.955 357.735 381.611 359.778 381.611H360.188C362.232 381.611 363.888 379.955 363.888 377.911V358.981C363.888 356.938 362.232 355.281 360.188 355.281Z" fill="#A2A2ED"/>
<path d="M230.305 356.699H368.335" stroke="#34304F" stroke-width="3.53" stroke-linecap="round" stroke-linejoin="round"/>
<path d="M235.024 394.31C241.85 394.31 247.384 388.776 247.384 381.95C247.384 375.124 241.85 369.59 235.024 369.59C228.198 369.59 222.664 375.124 222.664 381.95C222.664 388.776 228.198 394.31 235.024 394.31Z" fill="#624BEF"/>
<path d="M235.022 389.3C239.081 389.3 242.372 386.009 242.372 381.95C242.372 377.89 239.081 374.6 235.022 374.6C230.963 374.6 227.672 377.89 227.672 381.95C227.672 386.009 230.963 389.3 235.022 389.3Z" stroke="white" stroke-width="1.74" stroke-linecap="round" stroke-linejoin="round"/>
<path d="M332.993 395.009C339.819 395.009 345.353 389.475 345.353 382.649C345.353 375.823 339.819 370.289 332.993 370.289C326.167 370.289 320.633 375.823 320.633 382.649C320.633 389.475 326.167 395.009 332.993 395.009Z" fill="#624BEF"/>
<path d="M233.173 381.27C232.051 380.847 231.141 379.999 230.641 378.909C230.141 377.819 230.091 376.576 230.503 375.45L237.003 357.83C237.421 356.707 238.268 355.795 239.357 355.295C240.446 354.794 241.688 354.746 242.813 355.16C243.934 355.58 244.844 356.427 245.344 357.515C245.844 358.603 245.894 359.845 245.483 360.97L239.003 378.59C238.583 379.716 237.733 380.63 236.641 381.132C235.548 381.635 234.302 381.684 233.173 381.27Z" fill="#A2A2ED"/>
<path d="M332.538 389.649C336.597 389.649 339.888 386.358 339.888 382.299C339.888 378.24 336.597 374.949 332.538 374.949C328.478 374.949 325.188 378.24 325.188 382.299C325.188 386.358 328.478 389.649 332.538 389.649Z" stroke="white" stroke-width="1.74" stroke-linecap="round" stroke-linejoin="round"/>
<path d="M331.859 354.68H331.529C329.464 354.68 327.789 356.354 327.789 358.42V377.87C327.789 379.935 329.464 381.61 331.529 381.61H331.859C333.925 381.61 335.599 379.935 335.599 377.87V358.42C335.599 356.354 333.925 354.68 331.859 354.68Z" fill="#A2A2ED"/>
<path d="M319.633 231.801L340.793 253.001H406.083L384.773 231.691L319.633 231.801Z" fill="#FAC119"/>
<path d="M421.2 236.49C422.101 236.49 422.83 235.761 422.83 234.86C422.83 233.96 422.101 233.23 421.2 233.23C420.3 233.23 419.57 233.96 419.57 234.86C419.57 235.761 420.3 236.49 421.2 236.49Z" fill="#B9D0F9"/>
<path d="M424.882 335.611C424.884 336.3 424.681 336.974 424.3 337.548C423.918 338.122 423.375 338.569 422.738 338.834C422.102 339.098 421.401 339.168 420.725 339.034C420.049 338.9 419.428 338.569 418.941 338.081C418.454 337.594 418.122 336.973 417.988 336.297C417.854 335.621 417.924 334.921 418.189 334.284C418.453 333.648 418.901 333.105 419.475 332.723C420.049 332.341 420.723 332.139 421.412 332.141C422.332 332.141 423.215 332.506 423.866 333.157C424.516 333.808 424.882 334.69 424.882 335.611Z" fill="#B9D0F9"/>
<path d="M149.188 128.199V85.9986H226.318C243.418 85.9986 254.578 102.699 268.318 112.709C279.448 100.999 293.997 91.2386 308.177 82.3586C310.957 80.6363 314.227 79.8783 317.481 80.2019C320.735 80.5255 323.791 81.9126 326.177 84.1486L326.337 84.2986C327.313 85.2103 328.088 86.314 328.616 87.5402C329.143 88.7664 329.411 90.0885 329.403 91.4233C329.395 92.7582 329.11 94.0768 328.567 95.2962C328.024 96.5156 327.234 97.6094 326.247 98.5086C311.357 112.089 297.748 126.719 283.508 141.109C279.598 145.059 275.668 149.109 270.908 151.989C266.147 154.869 260.368 156.579 254.908 155.379L149.188 128.199Z" fill="#A7A7FC"/>
<path d="M227.812 111.9L264.812 135.69C266.786 136.961 269.151 137.479 271.476 137.151C273.8 136.822 275.928 135.668 277.473 133.9C279.086 132.055 279.921 129.655 279.802 127.206C279.682 124.757 278.618 122.45 276.832 120.77L268.362 112.77" stroke="#624BEF" stroke-width="1.9" stroke-linecap="round" stroke-linejoin="round"/>
<path d="M164.527 75.9688H135.438V136.319H164.527V75.9688Z" fill="#34304F"/>
<path d="M275.42 125.44L269.07 133.31C268.868 133.553 268.58 133.708 268.266 133.741C267.952 133.775 267.638 133.685 267.39 133.49L262.7 129.81C262.576 129.715 262.473 129.596 262.396 129.461C262.319 129.326 262.269 129.176 262.251 129.022C262.232 128.867 262.244 128.71 262.287 128.561C262.33 128.411 262.402 128.271 262.5 128.15L268.85 120.28C269.051 120.034 269.34 119.877 269.656 119.842C269.972 119.806 270.289 119.895 270.54 120.09L275.23 123.78C275.351 123.876 275.453 123.995 275.528 124.131C275.603 124.267 275.651 124.416 275.669 124.57C275.687 124.724 275.674 124.881 275.631 125.03C275.588 125.179 275.516 125.318 275.42 125.44Z" stroke="#624BEF" stroke-width="1.6" stroke-linecap="round" stroke-linejoin="round"/>
<path d="M155.944 89.0002C155.926 89.966 155.624 90.9051 155.075 91.7C154.527 92.4948 153.755 93.1102 152.859 93.4689C151.962 93.8276 150.979 93.9139 150.033 93.7168C149.088 93.5197 148.221 93.0481 147.542 92.361C146.863 91.6738 146.402 90.8017 146.217 89.8537C146.031 88.9058 146.129 87.9241 146.499 87.0317C146.868 86.1392 147.493 85.3755 148.294 84.8363C149.096 84.2971 150.038 84.0062 151.004 84.0002C151.66 83.9947 152.309 84.1207 152.915 84.3708C153.521 84.6209 154.07 84.99 154.531 85.4562C154.991 85.9223 155.354 86.4762 155.597 87.0849C155.839 87.6937 155.958 88.3449 155.944 89.0002Z" stroke="#A7A7FC" stroke-width="1.23" stroke-linecap="round" stroke-linejoin="round"/>
<mask id="mask0_939_337" style="mask-type:luminance" maskUnits="userSpaceOnUse" x="250" y="163" width="124" height="69">
<path d="M373.033 163.65H250.312V231.7H373.033V163.65Z" fill="white"/>
</mask>
<g mask="url(#mask0_939_337)">
<path d="M259.284 230.051V162.996H282.727C287.398 162.996 291.251 163.804 294.285 165.419C297.319 167.013 299.578 169.163 301.062 171.869C302.546 174.554 303.288 177.533 303.288 180.808C303.288 183.689 302.776 186.068 301.75 187.945C300.746 189.822 299.414 191.307 297.755 192.398C296.118 193.489 294.339 194.297 292.418 194.821V195.476C294.47 195.607 296.533 196.327 298.606 197.637C300.68 198.946 302.415 200.824 303.812 203.268C305.209 205.713 305.908 208.703 305.908 212.239C305.908 215.601 305.144 218.624 303.616 221.309C302.088 223.994 299.676 226.122 296.38 227.693C293.084 229.265 288.795 230.051 283.513 230.051H259.284ZM267.404 222.848H283.513C288.817 222.848 292.582 221.822 294.808 219.77C297.057 217.696 298.181 215.186 298.181 212.239C298.181 209.969 297.602 207.874 296.446 205.953C295.289 204.01 293.641 202.461 291.502 201.304C289.362 200.125 286.83 199.536 283.906 199.536H267.404V222.848ZM267.404 192.464H282.465C284.91 192.464 287.114 191.983 289.079 191.023C291.065 190.063 292.637 188.709 293.793 186.963C294.972 185.217 295.562 183.165 295.562 180.808C295.562 177.861 294.536 175.362 292.484 173.31C290.432 171.236 287.18 170.199 282.727 170.199H267.404V192.464Z" fill="#7195F5"/>
<path d="M321.676 236.541V184.89H339.734C343.332 184.89 346.3 185.512 348.637 186.756C350.974 187.984 352.714 189.64 353.857 191.725C355.001 193.793 355.572 196.088 355.572 198.61C355.572 200.829 355.177 202.662 354.387 204.108C353.614 205.554 352.588 206.697 351.31 207.538C350.049 208.378 348.679 209.001 347.199 209.404V209.909C348.78 210.009 350.369 210.564 351.966 211.573C353.563 212.582 354.9 214.028 355.976 215.911C357.052 217.794 357.59 220.097 357.59 222.821C357.59 225.411 357.002 227.739 355.825 229.807C354.648 231.875 352.79 233.515 350.251 234.725C347.712 235.936 344.408 236.541 340.339 236.541H321.676ZM327.931 230.993H340.339C344.425 230.993 347.325 230.202 349.04 228.622C350.772 227.025 351.638 225.091 351.638 222.821C351.638 221.073 351.192 219.459 350.301 217.979C349.41 216.483 348.141 215.289 346.493 214.398C344.845 213.49 342.895 213.036 340.642 213.036H327.931V230.993ZM327.931 207.588H339.532C341.415 207.588 343.114 207.218 344.627 206.479C346.157 205.739 347.367 204.696 348.259 203.351C349.166 202.006 349.62 200.426 349.62 198.61C349.62 196.34 348.83 194.415 347.25 192.834C345.669 191.237 343.164 190.439 339.734 190.439H327.931V207.588Z" fill="#34304F"/>
<path d="M302.637 236.5V232.729L316.8 217.224C318.463 215.409 319.831 213.83 320.907 212.489C321.982 211.134 322.779 209.863 323.295 208.676C323.826 207.475 324.092 206.218 324.092 204.905C324.092 203.396 323.728 202.09 323.002 200.987C322.29 199.883 321.312 199.031 320.069 198.431C318.826 197.83 317.429 197.53 315.879 197.53C314.23 197.53 312.792 197.872 311.562 198.556C310.347 199.227 309.404 200.17 308.734 201.385C308.078 202.6 307.749 204.025 307.749 205.659H302.805C302.805 203.145 303.384 200.938 304.544 199.038C305.703 197.139 307.281 195.658 309.279 194.597C311.29 193.535 313.546 193.004 316.046 193.004C318.56 193.004 320.788 193.535 322.73 194.597C324.671 195.658 326.194 197.09 327.297 198.892C328.401 200.694 328.952 202.698 328.952 204.905C328.952 206.483 328.666 208.027 328.093 209.535C327.535 211.03 326.557 212.699 325.16 214.543C323.777 216.372 321.857 218.607 319.398 221.247L309.761 231.555V231.891H329.707V236.5H302.637Z" fill="#9FBDFF"/>
</g>
<path d="M167.271 412.44C187.739 412.44 204.331 395.848 204.331 375.38C204.331 354.913 187.739 338.32 167.271 338.32C146.803 338.32 130.211 354.913 130.211 375.38C130.211 395.848 146.803 412.44 167.271 412.44Z" fill="#FAC119"/>
<path d="M151.164 374.489L162.484 386.019L186.074 359.719" stroke="white" stroke-width="5.37" stroke-linecap="round" stroke-linejoin="round"/>
<path d="M175.859 348.081C190.239 347.171 202.949 334.521 203.859 320.141C205.731 326.928 205.759 334.092 203.942 340.894C202.125 347.696 198.527 353.891 193.519 358.841C192.139 351.861 182.999 348.421 175.859 348.081Z" fill="#FAC119"/>
<path d="M229.385 64.02C247.064 64.02 261.395 49.6886 261.395 32.01C261.395 14.3314 247.064 0 229.385 0C211.706 0 197.375 14.3314 197.375 32.01C197.375 49.6886 211.706 64.02 229.385 64.02Z" fill="#FAC119"/>
<path d="M229.385 64.02C247.064 64.02 261.395 49.6886 261.395 32.01C261.395 14.3314 247.064 0 229.385 0C211.706 0 197.375 14.3314 197.375 32.01C197.375 49.6886 211.706 64.02 229.385 64.02Z" fill="#FAC119"/>
<path d="M229.384 55.5487C242.385 55.5487 252.924 45.0095 252.924 32.0087C252.924 19.008 242.385 8.46875 229.384 8.46875C216.383 8.46875 205.844 19.008 205.844 32.0087C205.844 45.0095 216.383 55.5487 229.384 55.5487Z" fill="#F9A41C"/>
<path d="M228.386 43.6914V20.2732H229.887V43.6914H228.386ZM233.436 27.2987C233.326 26.3717 232.881 25.6521 232.1 25.1398C231.32 24.6276 230.362 24.3714 229.228 24.3714C228.399 24.3714 227.673 24.5056 227.051 24.7739C226.435 25.0423 225.953 25.4112 225.606 25.8808C225.264 26.3504 225.093 26.884 225.093 27.4817C225.093 27.9817 225.212 28.4117 225.45 28.7715C225.694 29.1252 226.005 29.421 226.383 29.6588C226.761 29.8906 227.158 30.0827 227.572 30.2351C227.987 30.3815 228.368 30.5004 228.716 30.5919L230.618 31.1042C231.106 31.2322 231.649 31.4091 232.247 31.6347C232.851 31.8604 233.427 32.1683 233.976 32.5586C234.531 32.9428 234.988 33.4368 235.348 34.0406C235.708 34.6443 235.888 35.3853 235.888 36.2635C235.888 37.2758 235.622 38.1906 235.092 39.0078C234.567 39.825 233.799 40.4745 232.786 40.9563C231.78 41.438 230.557 41.6789 229.118 41.6789C227.777 41.6789 226.615 41.4624 225.633 41.0294C224.657 40.5964 223.889 39.9927 223.328 39.2182C222.773 38.4437 222.459 37.5442 222.386 36.5196H224.727C224.788 37.227 225.026 37.8125 225.441 38.276C225.862 38.7334 226.392 39.0749 227.033 39.3005C227.679 39.5201 228.374 39.6298 229.118 39.6298C229.984 39.6298 230.762 39.4896 231.451 39.209C232.14 38.9224 232.686 38.526 233.088 38.0198C233.491 37.5076 233.692 36.9099 233.692 36.2269C233.692 35.6048 233.518 35.0987 233.171 34.7084C232.823 34.3181 232.366 34.0009 231.799 33.757C231.231 33.5131 230.618 33.2996 229.96 33.1167L227.655 32.458C226.191 32.0372 225.032 31.4365 224.178 30.6559C223.325 29.8753 222.898 28.8538 222.898 27.5914C222.898 26.5425 223.181 25.6277 223.749 24.8471C224.322 24.0604 225.09 23.4506 226.054 23.0176C227.023 22.5785 228.106 22.3589 229.301 22.3589C230.509 22.3589 231.582 22.5754 232.521 23.0084C233.46 23.4353 234.204 24.0208 234.753 24.7648C235.308 25.5088 235.601 26.3534 235.631 27.2987H233.436Z" fill="#E56700"/>
<path d="M202.891 12.8809L209.881 18.4009" stroke="#E88900" stroke-width="2.21" stroke-linecap="round" stroke-linejoin="round"/>
<path d="M209.922 5.85938L215.362 12.9094" stroke="#E88900" stroke-width="2.21" stroke-linecap="round" stroke-linejoin="round"/>
<path d="M219.242 1.66016L222.962 9.75016" stroke="#E88900" stroke-width="2.21" stroke-linecap="round" stroke-linejoin="round"/>
<path d="M253.701 52.9497L246.711 47.4297" stroke="#E88900" stroke-width="2.21" stroke-linecap="round" stroke-linejoin="round"/>
<path d="M244.638 59.3808L239.578 52.0508" stroke="#E88900" stroke-width="2.21" stroke-linecap="round" stroke-linejoin="round"/>
<path d="M235.509 63.4396L231.789 55.3496" stroke="#E88900" stroke-width="2.21" stroke-linecap="round" stroke-linejoin="round"/>
<path d="M246.364 12.5098L249.194 17.6998L254.384 20.5398L249.194 23.3698L246.364 28.5598L243.524 23.3698L238.344 20.5398L243.524 17.6998L246.364 12.5098Z" fill="white"/>
</svg>
