<svg width="22" height="22" viewBox="0 0 22 22" fill="none" xmlns="http://www.w3.org/2000/svg">
<g clip-path="url(#clip0_1011_197)">
<path d="M6.33874 9.39844H20.4963C20.9115 9.39844 21.286 9.56773 21.5581 9.83964V9.84222C21.83 10.1143 21.9995 10.4888 21.9995 10.9015V20.4974C21.9995 20.9099 21.83 21.287 21.5581 21.5589C21.286 21.8312 20.9115 22.0003 20.4963 22.0003H6.33874C5.92607 22.0003 5.54897 21.8312 5.27707 21.5589C5.00499 21.287 4.83569 20.9123 4.83569 20.4974V10.9015C4.83569 10.4888 5.00499 10.1117 5.27707 9.83964C5.54915 9.56773 5.92607 9.39844 6.33874 9.39844ZM20.4963 10.0856H6.33874C6.11444 10.0856 5.91163 10.1786 5.76382 10.3264C5.61583 10.4744 5.52285 10.6772 5.52285 10.9015V20.4974C5.52285 20.7217 5.61583 20.9268 5.76382 21.0748C5.91146 21.2224 6.11444 21.3132 6.33874 21.3132H20.4963C20.7206 21.3132 20.9256 21.2226 21.0736 21.0748C21.2214 20.9268 21.3123 20.7216 21.3123 20.4974V10.9015C21.3123 10.6772 21.2216 10.4721 21.0736 10.3242V10.3266C20.9256 10.1788 20.7206 10.0856 20.4963 10.0856Z" fill="white"/>
<path d="M10.5477 6.5332H16.2904C16.6173 6.5332 16.9178 6.66675 17.1326 6.88383C17.3473 7.10091 17.4834 7.39928 17.4834 7.72602V9.74194V10.0855H17.1396H15.6892H15.3458V9.74194V8.62561H11.4925V9.74211V10.0857H11.1488H9.69831H9.35474V9.74211V7.72602C9.35474 7.39928 9.48828 7.0985 9.70296 6.88383C9.92003 6.66675 10.2186 6.5332 10.5477 6.5332ZM16.2902 7.22036H10.5477C10.4092 7.22036 10.2829 7.27742 10.1897 7.37058C10.0991 7.46133 10.0421 7.58766 10.0421 7.72602V9.39836H10.8054V8.28186V7.93845H11.1489H15.6892H16.0329V8.28186V9.39853H16.7962V7.72619C16.7962 7.58766 16.739 7.46133 16.6484 7.37075H16.6458C16.5551 7.27759 16.4288 7.22036 16.2902 7.22036Z" fill="white"/>
<path d="M3.79569 18.6476C3.98423 18.6476 4.13927 18.8 4.13927 18.991C4.13927 19.1794 3.98423 19.3344 3.79569 19.3344H1.03073C0.749203 19.3344 0.491563 19.2175 0.303016 19.0315V19.0291C0.116875 18.843 0 18.5855 0 18.3014V1.03056C0 0.749031 0.116875 0.491391 0.303016 0.303016C0.488984 0.116875 0.746625 0 1.03073 0H10.6954C10.8434 0 10.9818 0.0287031 11.1109 0.0859375C11.2374 0.143172 11.3518 0.226531 11.4544 0.333953L14.0479 3.1087C14.0549 3.11592 14.0597 3.12297 14.0669 3.13019C14.1501 3.22317 14.2099 3.32595 14.2529 3.4332C14.2959 3.55025 14.3198 3.67417 14.3198 3.80548V5.48986C14.3198 5.68064 14.1647 5.83344 13.9762 5.83344C13.7854 5.83344 13.6302 5.68064 13.6302 5.48986V3.80548C13.6302 3.7577 13.6256 3.71491 13.6111 3.67658C13.5969 3.64564 13.5802 3.61694 13.5587 3.58823C13.5539 3.58359 13.5489 3.58119 13.5443 3.57638L10.9532 0.801625C10.9173 0.763469 10.8769 0.734766 10.834 0.713281C10.7936 0.696609 10.7482 0.687156 10.6956 0.687156H1.03073C0.93775 0.687156 0.851812 0.725312 0.789766 0.789766L0.787359 0.787359C0.725312 0.849234 0.687156 0.937578 0.687156 1.03056V18.3014C0.687156 18.3968 0.725312 18.4827 0.787359 18.5448L0.789766 18.5472C0.851812 18.607 0.937578 18.6476 1.03073 18.6476H3.79569Z" fill="white"/>
<path d="M12.1722 15.662L6.27687 14.5427C5.87846 14.4688 5.51082 14.2947 5.2463 14.0298C4.99313 13.777 4.83569 13.4455 4.83569 13.0469H5.52285C5.52285 13.2497 5.60415 13.4168 5.73288 13.5457C5.89754 13.7077 6.13851 13.82 6.40337 13.87L12.2987 14.9889L12.1722 15.662ZM21.9993 13.0469C21.9993 13.4453 21.8419 13.7746 21.5889 14.0274V14.0298C21.324 14.2947 20.9567 14.469 20.5607 14.5427L14.6652 15.6712L14.5365 14.9985L20.4318 13.87C20.6991 13.8176 20.94 13.7079 21.1045 13.5457C21.2334 13.4168 21.3121 13.2495 21.3121 13.0469H21.9993Z" fill="white"/>
<path d="M8.75588 3.07031C8.94666 3.07031 9.09946 3.22311 9.09946 3.41389C9.09946 3.60244 8.94666 3.75747 8.75588 3.75747H3.96057C3.76962 3.75747 3.61682 3.60244 3.61682 3.41389C3.61682 3.22311 3.76962 3.07031 3.96057 3.07031H8.75588ZM2.32363 3.07031C2.51458 3.07031 2.66979 3.22311 2.66979 3.41389C2.66979 3.60244 2.51476 3.75747 2.32363 3.75747H2.06616C1.87744 3.75747 1.72241 3.60244 1.72241 3.41389C1.72241 3.22311 1.87744 3.07031 2.06616 3.07031H2.32363Z" fill="white"/>
<path d="M6.49641 6.18945C6.68496 6.18945 6.83999 6.34431 6.83999 6.53303C6.83999 6.72381 6.68496 6.87644 6.49641 6.87644H3.9604C3.76962 6.87644 3.61682 6.72381 3.61682 6.53303C3.61682 6.34448 3.76962 6.18945 3.9604 6.18945H6.49641ZM2.3238 6.18945C2.51458 6.18945 2.66979 6.34431 2.66979 6.53303C2.66979 6.72381 2.51476 6.87644 2.3238 6.87644H2.06616C1.87762 6.87644 1.72241 6.72381 1.72241 6.53303C1.72241 6.34448 1.87744 6.18945 2.06616 6.18945H2.3238Z" fill="white"/>
<path d="M8.75588 4.63086C8.94666 4.63086 9.09946 4.78366 9.09946 4.97444C9.09946 5.16281 8.94666 5.31802 8.75588 5.31802H3.96057C3.76962 5.31802 3.61682 5.16298 3.61682 4.97444C3.61682 4.78366 3.76962 4.63086 3.96057 4.63086H8.75588ZM2.32363 4.63086C2.51458 4.63086 2.66979 4.78366 2.66979 4.97444C2.66979 5.16281 2.51476 5.31802 2.32363 5.31802H2.06616C1.87744 5.31802 1.72241 5.16298 1.72241 4.97444C1.72241 4.78366 1.87744 4.63086 2.06616 4.63086H2.32363Z" fill="white"/>
<path d="M11.0486 0.126328L14.1762 3.52138C14.3027 3.65973 14.2957 3.87681 14.1547 4.00555C14.0903 4.06519 14.0071 4.0963 13.9234 4.0963H11.7691C11.4018 4.0963 11.0701 3.94591 10.8291 3.70511C10.8221 3.69789 10.8147 3.69084 10.8076 3.68362C10.5785 3.44489 10.4377 3.12056 10.4377 2.76495V0.343578C10.4377 0.155031 10.5905 0 10.7815 0C10.8886 0 10.9841 0.0500156 11.0486 0.126328ZM13.141 3.40931L11.1249 1.22375V2.76512C11.1249 2.93683 11.1918 3.09186 11.2992 3.20633C11.3038 3.21114 11.3088 3.21595 11.3136 3.22077C11.4305 3.33764 11.5926 3.40914 11.7691 3.40914L13.141 3.40931Z" fill="white"/>
<path d="M15.6222 1.85161C15.5841 2.03758 15.4029 2.15686 15.2168 2.11647C15.0306 2.07814 14.9113 1.89698 14.9495 1.71308L15.0808 1.08797L15.2525 0.274484C15.2858 0.112406 15.429 0 15.5889 0H16.1901H16.7913C16.9654 0 17.1088 0.128906 17.1325 0.298203L17.3853 1.50064C17.5618 1.55083 17.7337 1.61047 17.9006 1.67956C18.0701 1.74883 18.2345 1.82995 18.392 1.9183L19.4442 1.23114C19.5801 1.1428 19.7591 1.16428 19.8711 1.27652H19.8737L20.2984 1.70122C20.3031 1.70844 20.3103 1.71325 20.3153 1.7203L20.7231 2.12833C20.8422 2.2452 20.8544 2.43134 20.7614 2.56489L20.0813 3.60731C20.1719 3.76492 20.2508 3.92941 20.3223 4.09888C20.3892 4.26577 20.4488 4.43764 20.4988 4.61416L21.7251 4.8742C21.8946 4.90755 22.0091 5.06034 21.9996 5.22723V5.80972V6.41094C21.9996 6.58505 21.8709 6.73063 21.7014 6.75211L20.499 7.00494C20.449 7.18386 20.3892 7.35573 20.3225 7.52022C20.2223 7.76119 20.103 7.99012 19.967 8.20273C19.867 8.36481 19.6546 8.41259 19.4923 8.30998C19.3325 8.20737 19.2849 7.99511 19.3873 7.83509C19.5043 7.65153 19.6046 7.45817 19.6881 7.25794C19.7692 7.06217 19.8335 6.86177 19.8813 6.65672C19.9028 6.52077 20.0076 6.40853 20.1485 6.37759L21.3125 6.13422V5.80972H21.3149V5.48763L20.1482 5.24184C20.0219 5.21572 19.9144 5.11775 19.8833 4.9818C19.838 4.76953 19.7713 4.56431 19.6877 4.36167C19.6042 4.16127 19.504 3.96791 19.387 3.78434C19.3179 3.67452 19.3155 3.53134 19.3894 3.41447L20.0409 2.41725L19.8307 2.20498C19.8237 2.20034 19.8191 2.19536 19.8117 2.18814L19.5827 1.9592L18.6068 2.59617C18.4948 2.68194 18.3396 2.69156 18.2158 2.61284C18.0321 2.49597 17.8389 2.39577 17.6385 2.31223C17.4427 2.23111 17.2401 2.16666 17.0348 2.11905C16.9013 2.09756 16.7867 1.99495 16.7581 1.85178L16.512 0.687328H16.1901H15.8654L15.7533 1.2265L15.6222 1.85161ZM16.1901 3.68156C15.9991 3.68156 15.8463 3.52877 15.8463 3.33798C15.8463 3.1472 15.9991 2.99441 16.1901 2.99441C16.9676 2.99441 17.6715 3.30945 18.1821 3.81992C18.6903 4.32816 19.0052 5.03198 19.0052 5.80972C19.0052 6.01494 18.9837 6.21775 18.9408 6.41094C18.8978 6.60877 18.8333 6.79989 18.7502 6.98345C18.6713 7.15533 18.4685 7.23164 18.2943 7.15292C18.1226 7.07403 18.0486 6.87122 18.1275 6.69952C18.1893 6.56597 18.2371 6.42039 18.2705 6.26759C18.3016 6.11978 18.3182 5.96698 18.3182 5.80955C18.3182 5.22259 18.0797 4.69047 17.6955 4.30409C17.309 3.9203 16.7769 3.68156 16.1901 3.68156Z" fill="white"/>
<path d="M12.2846 13.0547H14.5534C14.7324 13.0547 14.8945 13.1286 15.0116 13.2453L15.014 13.2477C15.131 13.3649 15.2048 13.5294 15.2048 13.7083V16.223C15.2048 16.7144 15.0045 17.1606 14.6799 17.4849C14.3579 17.8096 13.9093 18.01 13.4178 18.01C12.9262 18.01 12.48 17.8096 12.1557 17.4849C11.8334 17.1606 11.6306 16.7146 11.6306 16.223V13.7083C11.6306 13.5294 11.7047 13.3646 11.824 13.2477V13.2453C11.9433 13.1286 12.1057 13.0547 12.2846 13.0547ZM14.5178 13.7418H12.3203V16.223C12.3203 16.5235 12.442 16.8004 12.6424 16.9985C12.8428 17.1989 13.1173 17.3229 13.4178 17.3229C13.721 17.3229 13.9951 17.1989 14.1955 16.9985C14.3935 16.8005 14.5178 16.5235 14.5178 16.223V13.7418Z" fill="white"/>
<path d="M13.4176 16.5211C13.6073 16.5211 13.7611 16.3673 13.7611 16.1776C13.7611 15.9878 13.6073 15.834 13.4176 15.834C13.2278 15.834 13.074 15.9878 13.074 16.1776C13.074 16.3673 13.2278 16.5211 13.4176 16.5211Z" fill="white"/>
</g>
<defs>
<clipPath id="clip0_1011_197">
<rect width="22" height="22" fill="white"/>
</clipPath>
</defs>
</svg>
