<svg width="21" height="20" viewBox="0 0 21 20" fill="none" xmlns="http://www.w3.org/2000/svg">
<path fill-rule="evenodd" clip-rule="evenodd" d="M12.1145 1.36104C11.1832 0.574966 9.82075 0.574967 8.88944 1.36104L8.04128 2.07692C7.64544 2.41102 7.1556 2.61394 6.63945 2.65759L5.5335 2.75111C4.31913 2.85381 3.35577 3.81717 3.25307 5.03155L3.15954 6.1375C3.11589 6.65365 2.91298 7.14349 2.57888 7.53934L1.86299 8.38749C1.07692 9.3188 1.07692 10.6812 1.86299 11.6125L2.57888 12.4607C2.91298 12.8565 3.11589 13.3464 3.15954 13.8625L3.25307 14.9685C3.35577 16.1829 4.31913 17.1462 5.5335 17.2489L6.63945 17.3424C7.1556 17.3861 7.64544 17.589 8.04129 17.9231L8.88944 18.639C9.82075 19.425 11.1832 19.425 12.1145 18.639L12.9626 17.9231C13.3585 17.589 13.8483 17.3861 14.3645 17.3424L15.4705 17.2489C16.6848 17.1462 17.6482 16.1829 17.7508 14.9685L17.8443 13.8625C17.8881 13.3464 18.091 12.8565 18.4251 12.4607L19.141 11.6125C19.927 10.6812 19.927 9.3188 19.141 8.38749L18.4251 7.53932C18.091 7.14349 17.8881 6.65365 17.8443 6.1375L17.7508 5.03155C17.6482 3.81717 16.6848 2.85381 15.4705 2.75111L14.3645 2.65759C13.8483 2.61394 13.3585 2.41102 12.9626 2.07692L12.1145 1.36104ZM15.048 8.29555C15.4873 7.85621 15.4873 7.1439 15.048 6.70456C14.6087 6.26521 13.8963 6.26521 13.457 6.70456L9.25249 10.9091L7.54799 9.20456C7.10865 8.76521 6.39634 8.76521 5.957 9.20456C5.51765 9.6439 5.51765 10.3562 5.957 10.7956L8.457 13.2955C8.89634 13.7349 9.60865 13.7349 10.048 13.2955L15.048 8.29555Z" fill="#252430"/>
</svg>
